<?xml version="1.0" encoding="utf-8"?>
<!-- Generator: Adobe Illustrator 23.1.1, SVG Export Plug-In . SVG Version: 6.00 Build 0)  -->
<svg version="1.1" id="Capa_1" xmlns="http://www.w3.org/2000/svg" xmlns:xlink="http://www.w3.org/1999/xlink" x="0px" y="0px"
	 viewBox="0 0 450.4 512" style="enable-background:new 0 0 450.4 512;" xml:space="preserve">
<style type="text/css">
	.st0{fill:#101010;}
</style>
<g>
	<g>
		<path class="st0" d="M0,213.3v280.9C0,504,8,512,17.8,512h148.1c9.8,0,17.8-8,17.8-17.8V363.9h83v130.4c0,9.8,8,17.8,17.8,17.8
			h148.1c9.8,0,17.8-8,17.8-17.8V213.3c0-5-2.1-9.7-5.8-13.1L231.3,4.7c-7-6.4-17.6-6.2-24.4,0.3 M148.1,476.4H35.6 M165.9,328.3
			 M414.8,476.4L414.8,476.4H302.2 M219.6,42.2"/>
	</g>
</g>
</svg>
