<?xml version="1.0" encoding="utf-8"?>
<!-- Generator: Adobe Illustrator 23.1.1, SVG Export Plug-In . SVG Version: 6.00 Build 0)  -->
<svg version="1.1" id="레이어_1" xmlns="http://www.w3.org/2000/svg" xmlns:xlink="http://www.w3.org/1999/xlink" x="0px"
	 y="0px" viewBox="0 0 384 277.3" style="enable-background:new 0 0 384 277.3;" xml:space="preserve">
<path d="M368,154.7H16c-8.8,0-16-7.2-16-16s7.2-16,16-16h352c8.8,0,16,7.2,16,16S376.8,154.7,368,154.7z" fill="#101010"/>
<path d="M368,32H16C7.2,32,0,24.8,0,16S7.2,0,16,0h352c8.8,0,16,7.2,16,16S376.8,32,368,32z" fill="#101010"/>
<path d="M368,277.3H16c-8.8,0-16-7.2-16-16s7.2-16,16-16h352c8.8,0,16,7.2,16,16S376.8,277.3,368,277.3z" fill="#101010"/>
</svg>
