<?xml version="1.0" encoding="utf-8"?>
<!-- Generator: Adobe Illustrator 23.1.1, SVG Export Plug-In . SVG Version: 6.00 Build 0)  -->
<svg version="1.1" id="Capa_1" xmlns="http://www.w3.org/2000/svg" xmlns:xlink="http://www.w3.org/1999/xlink" x="0px" y="0px"
	 viewBox="0 0 532 532.1" style="enable-background:new 0 0 532 532.1;" xml:space="preserve">
<style type="text/css">
	.st0{fill:#101010;stroke:#000000;stroke-width:20;stroke-miterlimit:10;}
</style>
<g>
	<g>
		<path class="st0" d="M515.7,485.6L370.1,340c28.2-34.8,45.2-79.1,45.2-127.3C415.3,100.9,324.4,10,212.7,10S10,100.9,10,212.7
			s90.9,202.7,202.7,202.7c48.2,0,92.5-17,127.3-45.2l145.6,145.6c4.2,4.2,9.6,6.3,15.1,6.3s10.9-2.1,15.1-6.3
			C524.1,507.4,524.1,493.9,515.7,485.6z M212.7,372.7c-88.2,0-160-71.8-160-160s71.8-160,160-160s160,71.8,160,160
			S300.9,372.7,212.7,372.7z" fill="#101010"/>
	</g>
</g>
</svg>
